<svg xmlns="http://www.w3.org/2000/svg" width="256" height="256"><path fill-opacity=".016" d="M0 128.004v128.004l128.25-.254 128.25-.254.254-127.75L257.008 0H0v128.004m.485.496c0 70.4.119 99.053.265 63.672.146-35.38.146-92.98 0-128C.604 29.153.485 58.1.485 128.5" fill="#1976D2" fill-rule="evenodd"/><path fill-opacity=".195" d="M22.582 9.304C16.859 16.807 17 15.096 17 76.948c0 50.6.186 57.492 1.651 61.282 2.502 6.473 5.564 10.02 11.479 13.296l5.37 2.974 89.405.276c78.978.244 90.037.092 94.827-1.3 7.302-2.123 13.548-7.937 16.231-15.107 1.962-5.245 2.036-7.521 2.015-62.157-.02-52.887-.146-56.982-1.859-60.712-1.01-2.2-2.87-4.9-4.133-6l-2.296-2 1.659 2.58c.912 1.419 1.396 2.841 1.077 3.161-.32.32-3.584-.841-7.254-2.58L218.5 7.5l-89.76-.271-89.759-.271-7.237 2.428c-3.981 1.335-7.572 2.221-7.98 1.968-.408-.252-.02-1.56.862-2.906 2.358-3.599.882-2.981-2.044.856M56.5 47c-.34.55-.141 1 .441 1S58 47.55 58 47s-.198-1-.441-1-.719.45-1.059 1m118 0c-.34.55-.141 1 .441 1S176 47.55 176 47s-.198-1-.441-1-.719.45-1.059 1m-90 58c-.34.55-.141 1 .441 1S86 105.55 86 105s-.198-1-.441-1-.719.45-1.059 1m118 0c-.34.55-.141 1 .441 1s1.059-.45 1.059-1-.198-1-.441-1-.719.45-1.059 1m24.5 41.015c-1.925 1.601-5.975 3.573-9 4.382-4.171 1.116-4.775 1.482-2.5 1.515 3.913.057 10.368-2.963 13.424-6.28 3.129-3.397 2.463-3.264-1.924.383m-151.558 16.75c-.582.404-1.819 1.848-2.75 3.208-1.486 2.171-1.692 5.743-1.692 29.348 0 22.404.262 27.43 1.577 30.201 3.078 6.485 3.024 6.478 55.074 6.474 45.226-.003 46.964-.073 50.159-2.022 5.927-3.613 6.316-5.954 5.986-36.03l-.296-26.902-2.743-2.528c-1.509-1.39-2.296-1.985-1.75-1.321.546.664.993 1.567.993 2.007 0 1.092-101.151.991-102.878-.104-.758-.48-1.069-1.373-.691-1.984.793-1.284.506-1.385-.989-.347m-32.99 1.499c-.308.804-.424 11.665-.256 24.136.253 18.837.558 22.836 1.804 23.623.825.52 5.212.953 9.75.962 12.685.023 12.25.958 12.25-26.318 0-12.284-.29-22.623-.644-22.978-.354-.354-2.17.696-4.035 2.334-4.733 4.155-9.958 4.113-14.78-.121-2.749-2.414-3.652-2.776-4.089-1.638m147 0c-.308.804-.424 11.665-.256 24.136.253 18.837.558 22.836 1.804 23.623.825.52 5.412.953 10.193.962 12.268.021 11.807 1.057 11.807-26.541 0-12.161-.29-22.4-.644-22.755-.354-.354-2.17.696-4.035 2.334-4.733 4.155-9.958 4.113-14.78-.121-2.749-2.414-3.652-2.776-4.089-1.638M51.75 209.732c2.337.211 6.162.211 8.5 0 2.337-.21.425-.383-4.25-.383s-6.588.173-4.25.383m147 0c2.338.211 6.162.211 8.5 0 2.338-.21.425-.383-4.25-.383s-6.588.173-4.25.383m-118.808 30.92c-1.032 2.714-1.231 9.672-.368 12.881.579 2.157 1.653 2.203 27.598 1.175 3.67-.146 6.456.086 6.191.514-.265.428-.004.778.578.778 1.113 0 1.556-16.169.473-17.253-.322-.322-1.785.717-3.25 2.31-2.589 2.814-2.958 2.9-13.164 3.068-10.428.171-10.523.152-13.808-2.889l-3.308-3.062-.942 2.478m58.67-1.931c-.336.337-.612 4.27-.612 8.741v8.129l12.75-.32c7.012-.176 14.62-.421 16.905-.545 2.285-.124 3.909.17 3.61.654-.299.484.082.673.846.42.978-.324 1.477-2.625 1.686-7.786.407-10.053-.035-10.829-4.038-7.078-3.206 3.005-3.429 3.055-13.759 3.055-10.242 0-10.577-.073-13.638-2.941-1.725-1.618-3.413-2.666-3.75-2.329" fill="#1976D2" fill-rule="evenodd"/><path fill-opacity=".307" d="M40.804 19.041c-4.203 2.219-7.997 6.874-9.666 11.858-1.508 4.503-1.577 84.98-.078 90.378 1.365 4.916 6.39 10.568 11.431 12.858 3.772 1.713 8.796 1.821 85.009 1.821 90.723 0 85.456.414 92.173-7.236 5.175-5.894 5.518-9.597 5.154-55.72l-.327-41.5-2.777-4.723c-1.713-2.916-4.426-5.691-7.087-7.25L210.324 17l-82.912.044c-80.26.043-83.03.107-86.608 1.997M17.232 77l-.212 55.5 2.387 5.127c1.313 2.821 2.804 5.385 3.312 5.699.509.315-.233-1.766-1.647-4.623l-2.572-5.194-.528-56.005-.528-56.004-.212 55.5m39.479-33.378C55.59 44.743 55.844 104 56.97 104c1.028 0 1.965-56.049.991-59.295-.296-.987-.858-1.474-1.25-1.083m117.972 2.028c-1.102 1.102-.821 58.35.287 58.35 1.036 0 1.976-56.896.963-58.267-.311-.421-.874-.459-1.25-.083m-90.072 3.17c-.679 1.1-.95 58.174-.279 58.845 1.781 1.781 2.466-6.299 2.612-30.822.151-25.279-.346-31.238-2.333-28.023m118.181-.233c-.8 1.228-1.245 58.293-.46 59.078.278.278.88-.32 1.337-1.329 1.001-2.212.134-59.302-.877-57.749M42.2 187c-.093 10.725.161 20.022.565 20.66.404.637.616-5.888.47-14.5-.42-24.778-.85-27.341-1.035-6.16m29.564-17c-.405 1.375-.743 12.977-.75 25.782-.014 23.488.657 28.66 3.984 30.717.832.514.786.013-.148-1.628-1.006-1.766-1.478-9.388-1.85-29.871-.275-15.125-.831-26.375-1.236-25m8.572 77c0 4.125.177 5.813.392 3.75.216-2.062.216-5.437 0-7.5-.215-2.062-.392-.375-.392 3.75m58.743 6.583c.048 1.165.285 1.402.604.605.289-.722.253-1.585-.079-1.917-.332-.332-.568.258-.525 1.312" fill="#1976D2" fill-rule="evenodd"/><path fill-opacity=".857" d="M44.5 18.207c-4.928 1.722-9.165 5.47-11.398 10.082C31.066 32.496 31 33.977 31 75.667c0 29.417.359 44.11 1.134 46.434 1.439 4.311 6.418 9.731 10.584 11.518 4.713 2.023 164.744 2.051 169.58.03 4.238-1.771 9.332-7.659 10.713-12.382.749-2.561 1.003-17.538.795-46.767-.294-41.337-.387-43.155-2.393-47-2.335-4.476-6.876-7.979-12.295-9.484-5.059-1.405-160.568-1.225-164.618.191m13.854 22.429c-4.955 1.098-5.021 1.615-4.417 34.704l.563 30.839 2.412 1.952c2.146 1.736 3.885 1.936 15.757 1.809 18.898-.202 17.49 2.726 17.122-35.592-.262-27.261-.465-30.454-2.04-32.027-1.457-1.455-3.879-1.782-14.5-1.954-7.013-.113-13.717.008-14.897.269m116.301 4.193c-1.463 1.616-1.655 5.32-1.655 31.877 0 26.732.183 30.201 1.654 31.422 2.349 1.949 26.343 1.949 28.692 0 1.472-1.222 1.654-4.703 1.654-31.595 0-28.01-.134-30.344-1.829-31.878-1.496-1.354-4.102-1.655-14.345-1.655-10.855 0-12.736.243-14.171 1.829" fill="#1976D2" fill-rule="evenodd"/></svg>